<?xml version="1.0" encoding="UTF-8"?>
<svg xmlns="http://www.w3.org/2000/svg" viewBox="0 0 1440 900" width="1440" height="900" font-family="Inter, system-ui, sans-serif">
  <!--
    app-shell-current.svg — 2026-04-20
    What today's Coxinha main window looks like (1440x900 viewport).
    Pair with app-shell-desired.svg to discuss target layout.
  -->

  <!-- Window chrome background -->
  <rect width="1440" height="900" fill="#ffffff" stroke="#e5e7eb" stroke-width="1"/>

  <!-- Sidebar: fixed 288 px (w-72), muted background -->
  <rect x="0" y="0" width="288" height="900" fill="#f5f5f5" stroke="#e5e7eb" stroke-width="1"/>

  <!-- Sidebar header -->
  <text x="16" y="38" font-size="18" font-weight="700" fill="#111827">Coxinha</text>
  <rect x="220" y="20" width="52" height="24" rx="4" fill="#de8c3a"/>
  <text x="234" y="37" font-size="11" fill="#ffffff">+ New</text>

  <!-- Nav items -->
  <rect x="8" y="60" width="272" height="32" rx="4" fill="#e9e9e9"/>
  <text x="32" y="80" font-size="13" fill="#111827">📝 Notes</text>
  <rect x="8" y="96" width="272" height="32" rx="4" fill="transparent"/>
  <text x="32" y="116" font-size="13" fill="#374151">📅 Agenda</text>
  <rect x="8" y="132" width="272" height="32" rx="4" fill="transparent"/>
  <text x="32" y="152" font-size="13" fill="#374151">🎙 Meetings</text>

  <!-- Search -->
  <rect x="16" y="184" width="256" height="28" rx="4" fill="#ffffff" stroke="#e5e7eb"/>
  <text x="28" y="202" font-size="12" fill="#9ca3af">🔎 Search notes…</text>

  <!-- Recent heading -->
  <text x="16" y="244" font-size="10" fill="#6b7280" letter-spacing="1">RECENT</text>

  <!-- Recent items placeholders -->
  <rect x="8" y="252" width="272" height="28" rx="4" fill="transparent"/>
  <text x="16" y="270" font-size="13" fill="#111827">Alpha note</text>
  <rect x="8" y="284" width="272" height="28" rx="4" fill="transparent"/>
  <text x="16" y="302" font-size="13" fill="#111827">Beta note</text>

  <!-- Tags -->
  <text x="16" y="344" font-size="10" fill="#6b7280" letter-spacing="1">🏷 TAGS</text>
  <rect x="16" y="356" width="72" height="20" rx="10" fill="transparent" stroke="#e5e7eb"/>
  <text x="24" y="370" font-size="11" fill="#374151">#project 3</text>

  <!-- Settings at bottom -->
  <rect x="8" y="848" width="272" height="32" rx="4" fill="transparent"/>
  <text x="32" y="868" font-size="13" fill="#374151">⚙ Settings</text>

  <!-- Main pane: empty state CENTERED — the "form gate" feel -->
  <rect x="288" y="0" width="1152" height="900" fill="#ffffff"/>
  <text x="864" y="440" font-size="14" fill="#9ca3af" text-anchor="middle">No note selected.</text>
  <rect x="760" y="460" width="208" height="36" rx="6" fill="#de8c3a"/>
  <text x="864" y="483" font-size="13" fill="#ffffff" text-anchor="middle">New note (Ctrl+Alt+N)</text>

  <!-- Callouts -->
  <g font-size="11" fill="#dc2626">
    <text x="304" y="32">◾ pseudo-router (App.tsx useState&lt;View&gt;)</text>
    <text x="304" y="50">◾ activeNoteId lives in Zustand, no URL</text>
    <text x="304" y="68">◾ Ctrl+Alt+N conflicts with OneNote on Windows</text>
    <text x="304" y="870">◾ No content max-width on 1920×1080 → empty bands on the right</text>
  </g>

  <!-- Sidebar width annotation -->
  <line x1="0" y1="876" x2="288" y2="876" stroke="#6b7280" stroke-width="1"/>
  <text x="144" y="893" font-size="10" fill="#6b7280" text-anchor="middle">288 px fixed</text>
</svg>
